<?xml version="1.0" encoding="UTF-8" standalone="no"?>
<!-- Created with Inkscape (http://www.inkscape.org/) -->

<svg
   xmlns:dc="http://purl.org/dc/elements/1.1/"
   xmlns:cc="http://creativecommons.org/ns#"
   xmlns:rdf="http://www.w3.org/1999/02/22-rdf-syntax-ns#"
   xmlns:svg="http://www.w3.org/2000/svg"
   xmlns="http://www.w3.org/2000/svg"
   xmlns:inkscape="http://www.inkscape.org/namespaces/inkscape"
   version="1.1"
   width="292.5"
   height="81.000374"
   id="svg2"
   xml:space="preserve"><metadata
     id="metadata8"><rdf:RDF><cc:Work
         rdf:about=""><dc:format>image/svg+xml</dc:format><dc:type
           rdf:resource="http://purl.org/dc/dcmitype/StillImage" /></cc:Work></rdf:RDF></metadata><defs
     id="defs6"><clipPath
       id="clipPath22"><path
         d="m 0,64.8 234,0 L 234,0 0,0 0,64.8 z"
         inkscape:connector-curvature="0"
         id="path24" /></clipPath><linearGradient
       x1="0"
       y1="0"
       x2="1"
       y2="0"
       id="linearGradient120"
       gradientUnits="userSpaceOnUse"
       gradientTransform="matrix(50.114258,0,0,-50.114258,12.637207,32.400391)"
       spreadMethod="pad"><stop
         id="stop122"
         style="stop-color:#557cb2;stop-opacity:1"
         offset="0" /><stop
         id="stop124"
         style="stop-color:#265e9a;stop-opacity:1"
         offset="0.58427" /><stop
         id="stop126"
         style="stop-color:#134a89;stop-opacity:1"
         offset="1" /></linearGradient><clipPath
       id="clipPath134"><path
         d="m 0,64.8 234,0 L 234,0 0,0 0,64.8 z"
         inkscape:connector-curvature="0"
         id="path136" /></clipPath></defs><g
     transform="matrix(1.25,0,0,-1.25,0,81.000375)"
     id="g10"><path
       d="m 23.661,7.535 -14.665,0 0,49.729 14.665,0 0,-49.729 z"
       inkscape:connector-curvature="0"
       id="path12"
       style="fill:#8dc527;fill-opacity:1;fill-rule:nonzero;stroke:none" /><g
       transform="translate(78.833,32.4258)"
       id="g14"><path
         d="m 0,0 -0.648,0 -7.625,8.498 0,-8.498 -0.78,0 0,9.725 0.662,0 7.611,-8.498 0,8.498 0.78,0 L 0,0 z"
         inkscape:connector-curvature="0"
         id="path16"
         style="fill:#4f4c4d;fill-opacity:1;fill-rule:nonzero;stroke:none" /></g><g
       id="g18"><g
         clip-path="url(#clipPath22)"
         id="g20"><g
           transform="translate(83.8662,35.6904)"
           id="g26"><path
             d="m 0,0 c -1.722,0.071 -3.15,-0.655 -3.15,-1.768 0,-0.598 0.559,-1.054 1.31,-1.054 0.633,0 1.148,0.227 1.84,0.826 L 0,0 z M 1.812,-2.723 1.693,-2.809 C 1.03,-3.293 0.751,-3.393 0.472,-3.393 0.147,-3.393 0.059,-3.236 0,-2.595 -0.736,-3.15 -1.369,-3.393 -2.076,-3.393 c -1.001,0 -1.78,0.727 -1.78,1.625 0,1.668 1.928,2.253 3.856,2.339 l 0,0.813 c 0,0.855 -0.486,1.311 -1.472,1.311 -0.707,0 -1.236,-0.242 -2.017,-0.813 l 0,0.7 c 0.81,0.484 1.413,0.684 2.135,0.684 0.824,0 2.061,-0.328 2.061,-1.668 l 0,-3.993 c 0,-0.256 0.044,-0.328 0.162,-0.328 0.161,0 0.589,0.299 0.943,0.571 l 0,-0.571 z"
             inkscape:connector-curvature="0"
             id="path28"
             style="fill:#4f4c4d;fill-opacity:1;fill-rule:nonzero;stroke:none" /></g><g
           transform="translate(87.4531,38.8281)"
           id="g30"><path
             d="m 0,0 1.854,0 0,-0.556 -1.854,0 0,-3.807 c 0,-1.098 0.015,-1.497 0.986,-1.497 0.397,0 0.618,0.056 1.207,0.313 l 0,-0.656 C 2.061,-6.274 1.84,-6.346 1.589,-6.417 1.339,-6.474 1.06,-6.53 0.824,-6.53 c -0.736,0 -1.531,0.398 -1.531,1.368 l 0,4.606 -1.781,0 0,0.556 1.781,0 0,1.525 0.486,0.599 L 0,2.124 0,0 z"
             inkscape:connector-curvature="0"
             id="path32"
             style="fill:#4f4c4d;fill-opacity:1;fill-rule:nonzero;stroke:none" /></g><path
           d="m 90.912,32.426 -0.707,0 0,6.402 0.707,0 0,-6.402 z m 0,8.554 -0.707,0 0,1.17 0.707,0 0,-1.17 z"
           inkscape:connector-curvature="0"
           id="path34"
           style="fill:#4f4c4d;fill-opacity:1;fill-rule:nonzero;stroke:none" /><g
           transform="translate(95.2954,38.2861)"
           id="g36"><path
             d="m 0,0 c -1.501,0 -2.62,-1.127 -2.62,-2.666 0,-1.526 1.119,-2.652 2.62,-2.652 1.487,0 2.606,1.126 2.606,2.652 C 2.606,-1.141 1.487,0 0,0 m 0,-5.988 c -1.928,0 -3.371,1.426 -3.371,3.322 0,1.91 1.443,3.336 3.371,3.336 1.928,0 3.356,-1.426 3.356,-3.336 0,-1.896 -1.428,-3.322 -3.356,-3.322"
             inkscape:connector-curvature="0"
             id="path38"
             style="fill:#4f4c4d;fill-opacity:1;fill-rule:nonzero;stroke:none" /></g><g
           transform="translate(100.3291,37.7148)"
           id="g40"><path
             d="m 0,0 0.03,0 c 0.618,0.899 1.221,1.241 2.178,1.241 1.413,0 2.459,-0.898 2.459,-2.623 l 0,-3.907 -0.707,0 0,3.65 c 0,1.44 -0.633,2.21 -1.796,2.21 C 1.207,0.571 0.589,0.129 0,-0.798 l 0,-4.491 -0.706,0 0,6.402 L 0,1.113 0,0 z"
             inkscape:connector-curvature="0"
             id="path42"
             style="fill:#4f4c4d;fill-opacity:1;fill-rule:nonzero;stroke:none" /></g><g
           transform="translate(109.6709,35.6904)"
           id="g44"><path
             d="m 0,0 c -1.723,0.071 -3.15,-0.655 -3.15,-1.768 0,-0.598 0.559,-1.054 1.31,-1.054 0.633,0 1.148,0.227 1.84,0.826 L 0,0 z M 1.811,-2.723 1.693,-2.809 C 1.03,-3.293 0.751,-3.393 0.471,-3.393 0.147,-3.393 0.059,-3.236 0,-2.595 -0.736,-3.15 -1.369,-3.393 -2.076,-3.393 c -1.001,0 -1.781,0.727 -1.781,1.625 0,1.668 1.929,2.253 3.857,2.339 l 0,0.813 c 0,0.855 -0.486,1.311 -1.472,1.311 -0.707,0 -1.236,-0.242 -2.017,-0.813 l 0,0.7 c 0.81,0.484 1.413,0.684 2.135,0.684 0.824,0 2.061,-0.328 2.061,-1.668 l 0,-3.993 c 0,-0.256 0.044,-0.328 0.161,-0.328 0.162,0 0.59,0.299 0.943,0.571 l 0,-0.571 z"
             inkscape:connector-curvature="0"
             id="path46"
             style="fill:#4f4c4d;fill-opacity:1;fill-rule:nonzero;stroke:none" /></g><path
           d="m 112.771,32.426 -0.707,0 0,9.725 0.707,0 0,-9.725 z"
           inkscape:connector-curvature="0"
           id="path48"
           style="fill:#4f4c4d;fill-opacity:1;fill-rule:nonzero;stroke:none" /><g
           transform="translate(126.3877,40.6387)"
           id="g50"><path
             d="m 0,0 c -1.251,0.642 -2.385,0.94 -3.577,0.94 -2.503,0 -4.387,-1.838 -4.387,-4.305 0,-2.51 1.869,-4.278 4.489,-4.278 1.135,0 2.209,0.3 3.579,0.998 l 0,-0.784 c -1.164,-0.598 -2.4,-0.912 -3.564,-0.912 -3.061,0 -5.343,2.124 -5.343,4.976 0,2.98 2.518,5.005 5.27,5.005 1.119,0 2.311,-0.271 3.533,-0.813 L 0,0 z"
             inkscape:connector-curvature="0"
             id="path52"
             style="fill:#4f4c4d;fill-opacity:1;fill-rule:nonzero;stroke:none" /></g><g
           transform="translate(130.2959,38.2861)"
           id="g54"><path
             d="m 0,0 c -1.503,0 -2.621,-1.127 -2.621,-2.666 0,-1.526 1.118,-2.652 2.621,-2.652 1.486,0 2.605,1.126 2.605,2.652 C 2.605,-1.141 1.486,0 0,0 m 0,-5.988 c -1.93,0 -3.372,1.426 -3.372,3.322 0,1.91 1.442,3.336 3.372,3.336 1.928,0 3.356,-1.426 3.356,-3.336 0,-1.896 -1.428,-3.322 -3.356,-3.322"
             inkscape:connector-curvature="0"
             id="path56"
             style="fill:#4f4c4d;fill-opacity:1;fill-rule:nonzero;stroke:none" /></g><g
           transform="translate(135.3145,37.7012)"
           id="g58"><path
             d="m 0,0 0.028,0 c 0.59,0.898 1.208,1.255 2.106,1.255 1.031,0 1.708,-0.499 2.135,-1.54 0.662,1.069 1.338,1.54 2.295,1.54 1.384,0 2.296,-1.026 2.296,-2.595 l 0,-3.935 -0.706,0 0,3.635 c 0,1.284 -0.559,2.225 -1.721,2.225 -0.81,0 -1.34,-0.428 -2.002,-1.497 l 0,-4.363 -0.707,0 0,3.65 c 0,1.582 -0.81,2.21 -1.738,2.21 C 1.177,0.585 0.618,0.199 0,-0.784 l 0,-4.491 -0.708,0 0,6.402 L 0,1.127 0,0 z"
             inkscape:connector-curvature="0"
             id="path60"
             style="fill:#4f4c4d;fill-opacity:1;fill-rule:nonzero;stroke:none" /></g><g
           transform="translate(146.165,37.7012)"
           id="g62"><path
             d="m 0,0 0.029,0 c 0.589,0.898 1.207,1.255 2.106,1.255 1.029,0 1.707,-0.499 2.134,-1.54 0.662,1.069 1.339,1.54 2.296,1.54 1.384,0 2.296,-1.026 2.296,-2.595 l 0,-3.935 -0.707,0 0,3.635 c 0,1.284 -0.558,2.225 -1.721,2.225 -0.81,0 -1.34,-0.428 -2.002,-1.497 l 0,-4.363 -0.707,0 0,3.65 c 0,1.582 -0.81,2.21 -1.737,2.21 C 1.178,0.585 0.618,0.199 0,-0.784 l 0,-4.491 -0.707,0 0,6.402 L 0,1.127 0,0 z"
             inkscape:connector-curvature="0"
             id="path64"
             style="fill:#4f4c4d;fill-opacity:1;fill-rule:nonzero;stroke:none" /></g><g
           transform="translate(160.9385,33.4805)"
           id="g66"><path
             d="m 0,0 -0.029,0 c -0.604,-0.826 -1.148,-1.183 -2.178,-1.183 -1.134,0 -2.458,0.656 -2.458,2.567 l 0,3.964 0.706,0 0,-3.951 c 0,-1.296 0.839,-1.91 1.81,-1.91 1.045,0 1.576,0.499 2.149,1.368 l 0,4.493 0.707,0 0,-6.403 L 0,-1.055 0,0 z"
             inkscape:connector-curvature="0"
             id="path68"
             style="fill:#4f4c4d;fill-opacity:1;fill-rule:nonzero;stroke:none" /></g><g
           transform="translate(163.6592,37.7148)"
           id="g70"><path
             d="m 0,0 0.03,0 c 0.618,0.899 1.222,1.241 2.178,1.241 1.414,0 2.459,-0.898 2.459,-2.623 l 0,-3.907 -0.707,0 0,3.65 c 0,1.44 -0.632,2.21 -1.795,2.21 C 1.207,0.571 0.589,0.129 0,-0.798 l 0,-4.491 -0.706,0 0,6.402 L 0,1.113 0,0 z"
             inkscape:connector-curvature="0"
             id="path72"
             style="fill:#4f4c4d;fill-opacity:1;fill-rule:nonzero;stroke:none" /></g><path
           d="m 170.387,32.426 -0.706,0 0,6.402 0.706,0 0,-6.402 z m 0,8.554 -0.706,0 0,1.17 0.706,0 0,-1.17 z"
           inkscape:connector-curvature="0"
           id="path74"
           style="fill:#4f4c4d;fill-opacity:1;fill-rule:nonzero;stroke:none" /><g
           transform="translate(173.2705,38.8281)"
           id="g76"><path
             d="m 0,0 1.854,0 0,-0.556 -1.854,0 0,-3.807 c 0,-1.098 0.016,-1.497 0.986,-1.497 0.398,0 0.618,0.056 1.207,0.313 l 0,-0.656 C 2.061,-6.274 1.841,-6.346 1.59,-6.417 1.34,-6.474 1.06,-6.53 0.824,-6.53 c -0.735,0 -1.53,0.398 -1.53,1.368 l 0,4.606 -1.781,0 0,0.556 1.781,0 0,1.525 0.486,0.599 0.22,0 L 0,0 z"
             inkscape:connector-curvature="0"
             id="path78"
             style="fill:#4f4c4d;fill-opacity:1;fill-rule:nonzero;stroke:none" /></g><g
           transform="translate(176.5781,29.1465)"
           id="g80"><path
             d="m 0,0 -0.721,0 2.311,4.52 -2.782,5.162 0.736,0 2.399,-4.478 2.283,4.478 0.721,0 L 0,0 z"
             inkscape:connector-curvature="0"
             id="path82"
             style="fill:#4f4c4d;fill-opacity:1;fill-rule:nonzero;stroke:none" /></g><g
           transform="translate(194.0234,40.6387)"
           id="g84"><path
             d="m 0,0 c -1.251,0.642 -2.386,0.94 -3.577,0.94 -2.502,0 -4.387,-1.838 -4.387,-4.305 0,-2.51 1.87,-4.278 4.489,-4.278 1.134,0 2.209,0.3 3.578,0.998 l 0,-0.784 c -1.163,-0.598 -2.4,-0.912 -3.563,-0.912 -3.061,0 -5.343,2.124 -5.343,4.976 0,2.98 2.517,5.005 5.27,5.005 1.119,0 2.311,-0.271 3.533,-0.813 L 0,0 z"
             inkscape:connector-curvature="0"
             id="path86"
             style="fill:#4f4c4d;fill-opacity:1;fill-rule:nonzero;stroke:none" /></g><g
           transform="translate(197.9297,38.2861)"
           id="g88"><path
             d="m 0,0 c -1.501,0 -2.62,-1.127 -2.62,-2.666 0,-1.526 1.119,-2.652 2.62,-2.652 1.487,0 2.606,1.126 2.606,2.652 C 2.606,-1.141 1.487,0 0,0 m 0,-5.988 c -1.928,0 -3.37,1.426 -3.37,3.322 0,1.91 1.442,3.336 3.37,3.336 1.929,0 3.356,-1.426 3.356,-3.336 0,-1.896 -1.427,-3.322 -3.356,-3.322"
             inkscape:connector-curvature="0"
             id="path90"
             style="fill:#4f4c4d;fill-opacity:1;fill-rule:nonzero;stroke:none" /></g><path
           d="m 203.035,32.426 -0.706,0 0,9.725 0.706,0 0,-9.725 z"
           inkscape:connector-curvature="0"
           id="path92"
           style="fill:#4f4c4d;fill-opacity:1;fill-rule:nonzero;stroke:none" /><path
           d="m 205.13,32.426 -0.706,0 0,9.725 0.706,0 0,-9.725 z"
           inkscape:connector-curvature="0"
           id="path94"
           style="fill:#4f4c4d;fill-opacity:1;fill-rule:nonzero;stroke:none" /><g
           transform="translate(211.2734,36.418)"
           id="g96"><path
             d="M 0,0 C -0.25,1.255 -0.956,1.868 -2.09,1.868 -3.179,1.868 -4.033,1.169 -4.283,0 L 0,0 z m -4.371,-0.556 c -0.207,-1.64 1.133,-2.894 2.635,-2.894 0.883,0 1.604,0.285 2.458,0.955 l 0,-0.771 c -0.78,-0.584 -1.59,-0.854 -2.546,-0.854 -1.914,0 -3.299,1.426 -3.299,3.407 0,1.882 1.281,3.251 3.033,3.251 1.414,0 2.93,-0.955 2.93,-3.094 l -5.211,0 z"
             inkscape:connector-curvature="0"
             id="path98"
             style="fill:#4f4c4d;fill-opacity:1;fill-rule:nonzero;stroke:none" /></g><g
           transform="translate(215.1396,38.2578)"
           id="g100"><path
             d="m 0,0 c -0.986,0 -1.737,-0.742 -1.737,-1.669 0,-0.955 0.751,-1.739 1.752,-1.739 0.971,0 1.766,0.77 1.766,1.711 C 1.781,-0.756 0.986,0 0,0 m 0.251,-6.175 c -0.825,0 -2.399,-0.113 -2.399,-1.182 0,-0.756 0.809,-1.184 2.266,-1.184 1.354,0 2.237,0.484 2.237,1.241 0,0.899 -0.912,1.125 -2.104,1.125 m 2.796,6.19 -1.501,0 c 0.633,-0.572 0.912,-1.056 0.912,-1.698 0,-2.866 -3.753,-1.924 -3.753,-3.166 0,-1.396 4.327,0.315 4.327,-2.394 0,-1.169 -1.103,-1.868 -2.959,-1.868 -2.03,0 -2.899,0.798 -2.899,1.711 0,0.813 0.692,1.369 1.929,1.553 l 0,0.03 c -0.707,0.156 -1.076,0.47 -1.076,0.912 0,0.57 0.545,0.812 1.326,1.041 l 0,0.028 c -1.326,0.371 -1.766,1.355 -1.766,2.124 0,1.069 0.69,2.282 2.81,2.282 l 2.65,0 0,-0.555 z"
             inkscape:connector-curvature="0"
             id="path102"
             style="fill:#4f4c4d;fill-opacity:1;fill-rule:nonzero;stroke:none" /></g><g
           transform="translate(223.3965,36.418)"
           id="g104"><path
             d="M 0,0 C -0.25,1.255 -0.957,1.868 -2.091,1.868 -3.18,1.868 -4.033,1.169 -4.284,0 L 0,0 z m -4.372,-0.556 c -0.206,-1.64 1.134,-2.894 2.636,-2.894 0.882,0 1.603,0.285 2.457,0.955 l 0,-0.771 c -0.78,-0.584 -1.589,-0.854 -2.546,-0.854 -1.914,0 -3.298,1.426 -3.298,3.407 0,1.882 1.281,3.251 3.032,3.251 1.414,0 2.93,-0.955 2.93,-3.094 l -5.211,0 z"
             inkscape:connector-curvature="0"
             id="path106"
             style="fill:#4f4c4d;fill-opacity:1;fill-rule:nonzero;stroke:none" /></g></g></g><g
       id="g108"><g
         id="g110"><g
           id="g116"><g
             id="g118"><path
               d="m 12.637,7.535 50.115,0 0,49.73 -50.115,0 0,-49.73 z"
               inkscape:connector-curvature="0"
               id="path128"
               style="fill:url(#linearGradient120);stroke:none" /></g></g></g></g><g
       id="g130"><g
         clip-path="url(#clipPath134)"
         id="g132"><g
           transform="translate(20.9883,51.8018)"
           id="g138"><path
             d="m 0,0 1.833,0 7.085,-10.163 0.035,0 0,10.163 1.452,0 0,-12.237 -1.832,0 -7.087,10.163 -0.034,0 0,-10.163 -1.452,0 L 0,0 z"
             inkscape:connector-curvature="0"
             id="path140"
             style="fill:#c5d3d9;fill-opacity:1;fill-rule:nonzero;stroke:none" /></g><g
           transform="translate(42.3071,49.2783)"
           id="g142"><path
             d="m 0,0 c -0.726,0.985 -1.884,1.486 -3.059,1.486 -2.731,0 -4.667,-2.402 -4.667,-5.081 0,-2.835 1.919,-5.081 4.667,-5.081 1.487,0 2.679,0.605 3.543,1.711 l 1.089,-0.916 c -1.089,-1.47 -2.679,-2.143 -4.632,-2.143 -3.508,0 -6.222,2.713 -6.222,6.429 0,3.595 2.593,6.43 6.222,6.43 1.66,0 3.284,-0.57 4.321,-1.919 L 0,0 z"
             inkscape:connector-curvature="0"
             id="path144"
             style="fill:#c5d3d9;fill-opacity:1;fill-rule:nonzero;stroke:none" /></g><g
           transform="translate(54.0957,49.2783)"
           id="g146"><path
             d="m 0,0 c -0.726,0.985 -1.884,1.486 -3.059,1.486 -2.731,0 -4.667,-2.402 -4.667,-5.081 0,-2.835 1.919,-5.082 4.667,-5.082 1.486,0 2.679,0.606 3.543,1.711 l 1.089,-0.915 c -1.089,-1.47 -2.679,-2.143 -4.632,-2.143 -3.509,0 -6.223,2.713 -6.223,6.429 0,3.595 2.594,6.43 6.223,6.43 1.659,0 3.284,-0.57 4.321,-1.919 L 0,0 z"
             inkscape:connector-curvature="0"
             id="path148"
             style="fill:#c5d3d9;fill-opacity:1;fill-rule:nonzero;stroke:none" /></g><g
           transform="translate(24.2563,17.4258)"
           id="g150"><path
             d="m 0,0 4.585,0 c 1.605,0 3.407,0.688 3.407,2.72 0,2.194 -2.456,2.554 -4.127,2.554 L 0,5.274 0,0 z m 0,9.599 3.701,0 c 1.572,0 3.21,0.655 3.21,2.521 0,1.933 -1.834,2.424 -3.439,2.424 L 0,14.544 0,9.599 z m -5.11,9.268 8.647,0 c 4.062,0 8.484,-0.851 8.484,-5.895 0,-2.588 -1.605,-4.357 -3.997,-5.109 l 0,-0.066 c 3.047,-0.394 5.078,-2.653 5.078,-5.667 0,-4.848 -4.586,-6.453 -8.713,-6.453 l -9.499,0 0,23.19 z"
             inkscape:connector-curvature="0"
             id="path152"
             style="fill:#ffffff;fill-opacity:1;fill-rule:nonzero;stroke:none" /></g><g
           transform="translate(45.481,26.4678)"
           id="g154"><path
             d="M 0,0 3.406,0 C 5.208,0 7.01,0.622 7.01,2.783 7.01,5.175 4.585,5.502 2.621,5.502 L 0,5.502 0,0 z m -5.11,9.825 8.615,0 c 4.815,0 8.81,-1.539 8.81,-7.042 0,-5.437 -3.701,-7.107 -8.581,-7.107 l -3.734,0 0,-9.041 -5.11,0 0,23.19 z"
             inkscape:connector-curvature="0"
             id="path156"
             style="fill:#ffffff;fill-opacity:1;fill-rule:nonzero;stroke:none" /></g><g
           transform="translate(72.3418,18.9053)"
           id="g158"><path
             d="m 0,0 0,-3.501 3.189,0 c 0.57,0 1.014,0.076 1.331,0.231 0.576,0.286 0.863,0.832 0.863,1.639 0,0.684 -0.279,1.153 -0.837,1.408 C 4.235,-0.08 3.797,-0.006 3.233,0 L 0,0 z m 0,5.069 0,-2.894 3.193,0 c 0.571,0 1.033,0.108 1.389,0.325 0.356,0.217 0.534,0.602 0.534,1.153 0,0.613 -0.235,1.016 -0.706,1.212 C 4.004,5.001 3.487,5.069 2.858,5.069 L 0,5.069 z M 7.133,5.952 C 7.535,5.394 7.736,4.726 7.736,3.947 7.736,3.146 7.534,2.502 7.128,2.014 6.901,1.741 6.567,1.491 6.126,1.267 6.796,1.022 7.302,0.637 7.644,0.107 7.985,-0.422 8.155,-1.063 8.155,-1.817 8.155,-2.596 7.96,-3.293 7.57,-3.911 7.322,-4.32 7.012,-4.665 6.64,-4.944 6.221,-5.265 5.726,-5.484 5.155,-5.604 4.585,-5.723 3.966,-5.782 3.299,-5.782 l -5.92,0 0,13.133 6.35,0 C 5.331,7.327 6.465,6.861 7.133,5.952"
             inkscape:connector-curvature="0"
             id="path160"
             style="fill:#4f4c4d;fill-opacity:1;fill-rule:nonzero;stroke:none" /></g><g
           transform="translate(84.6465,20.4443)"
           id="g162"><path
             d="m 0,0 c -0.359,-0.369 -0.584,-0.871 -0.677,-1.502 l 4.377,0 C 3.654,-0.828 3.429,-0.316 3.023,0.032 2.619,0.381 2.116,0.555 1.517,0.555 0.865,0.555 0.359,0.371 0,0 M 3.801,2.193 C 4.479,1.891 5.038,1.412 5.479,0.758 5.877,0.181 6.135,-0.488 6.254,-1.25 6.322,-1.697 6.35,-2.34 6.337,-3.179 l -7.076,0 c 0.039,-0.973 0.378,-1.656 1.016,-2.049 0.388,-0.243 0.855,-0.364 1.401,-0.364 0.579,0 1.049,0.148 1.41,0.446 0.198,0.159 0.372,0.382 0.523,0.667 l 2.594,0 C 6.136,-5.055 5.822,-5.64 5.263,-6.233 4.393,-7.179 3.174,-7.65 1.608,-7.65 c -1.294,0 -2.434,0.398 -3.423,1.195 -0.988,0.796 -1.482,2.092 -1.482,3.887 0,1.683 0.446,2.972 1.338,3.871 0.892,0.896 2.051,1.346 3.475,1.346 0.845,0 1.607,-0.152 2.285,-0.456"
             inkscape:connector-curvature="0"
             id="path164"
             style="fill:#4f4c4d;fill-opacity:1;fill-rule:nonzero;stroke:none" /></g><g
           transform="translate(99.7456,22.2783)"
           id="g166"><path
             d="m 0,0 c 0.636,-0.526 0.954,-1.397 0.954,-2.615 l 0,-6.54 -2.603,0 0,5.907 c 0,0.512 -0.067,0.903 -0.203,1.177 -0.248,0.499 -0.721,0.748 -1.417,0.748 -0.855,0 -1.441,-0.365 -1.76,-1.096 -0.165,-0.386 -0.248,-0.88 -0.248,-1.479 l 0,-5.257 -2.54,0 0,9.694 2.46,0 0,-1.416 c 0.325,0.498 0.633,0.857 0.923,1.077 0.52,0.392 1.181,0.588 1.979,0.588 C -1.454,0.788 -0.637,0.525 0,0"
             inkscape:connector-curvature="0"
             id="path168"
             style="fill:#4f4c4d;fill-opacity:1;fill-rule:nonzero;stroke:none" /></g><g
           transform="translate(108.2417,19.3506)"
           id="g170"><path
             d="m 0,0 c -0.048,0.363 -0.17,0.69 -0.366,0.98 -0.286,0.393 -0.73,0.588 -1.332,0.588 -0.858,0 -1.445,-0.423 -1.76,-1.273 -0.167,-0.451 -0.25,-1.05 -0.25,-1.796 0,-0.711 0.083,-1.282 0.25,-1.715 0.304,-0.807 0.876,-1.212 1.715,-1.212 0.597,0 1.019,0.16 1.269,0.482 0.251,0.32 0.403,0.736 0.456,1.248 l 2.594,0 C 2.516,-3.471 2.237,-4.202 1.737,-4.891 0.94,-6.001 -0.241,-6.557 -1.805,-6.557 c -1.564,0 -2.716,0.463 -3.453,1.391 -0.737,0.926 -1.106,2.127 -1.106,3.604 0,1.666 0.407,2.962 1.222,3.888 0.815,0.927 1.939,1.39 3.372,1.39 1.22,0 2.218,-0.274 2.994,-0.82 C 2,2.35 2.46,1.385 2.603,0 L 0,0 z"
             inkscape:connector-curvature="0"
             id="path172"
             style="fill:#4f4c4d;fill-opacity:1;fill-rule:nonzero;stroke:none" /></g><g
           transform="translate(118.959,22.7813)"
           id="g174"><path
             d="M 0,0 C 0.488,-0.208 0.889,-0.526 1.202,-0.954 1.469,-1.317 1.631,-1.69 1.69,-2.073 1.75,-2.457 1.779,-3.083 1.779,-3.951 l 0,-5.707 -2.593,0 0,5.915 c 0,0.523 -0.089,0.945 -0.265,1.265 -0.231,0.453 -0.667,0.678 -1.31,0.678 -0.667,0 -1.173,-0.223 -1.518,-0.674 -0.344,-0.448 -0.517,-1.089 -0.517,-1.922 l 0,-5.262 -2.54,0 0,13.089 2.54,0 0,-4.633 c 0.366,0.563 0.791,0.958 1.274,1.18 0.482,0.222 0.989,0.334 1.521,0.334 C -1.031,0.312 -0.488,0.208 0,0"
             inkscape:connector-curvature="0"
             id="path176"
             style="fill:#4f4c4d;fill-opacity:1;fill-rule:nonzero;stroke:none" /></g><g
           transform="translate(134.5625,22.7988)"
           id="g178"><path
             d="m 0,0 c 0.415,-0.166 0.793,-0.457 1.132,-0.872 0.273,-0.339 0.457,-0.755 0.552,-1.247 0.059,-0.328 0.089,-0.806 0.089,-1.437 l -0.017,-6.12 -2.603,0 0,6.183 c 0,0.369 -0.059,0.673 -0.178,0.91 -0.226,0.451 -0.642,0.677 -1.248,0.677 -0.702,0 -1.186,-0.291 -1.454,-0.873 -0.135,-0.309 -0.204,-0.681 -0.204,-1.115 l 0,-5.782 -2.559,0 0,5.782 c 0,0.577 -0.06,0.996 -0.178,1.258 -0.214,0.469 -0.634,0.702 -1.257,0.702 -0.724,0 -1.213,-0.233 -1.462,-0.702 -0.136,-0.268 -0.205,-0.666 -0.205,-1.195 l 0,-5.845 -2.576,0 0,9.695 2.469,0 0,-1.416 c 0.315,0.503 0.612,0.863 0.891,1.077 0.494,0.38 1.132,0.57 1.917,0.57 0.743,0 1.342,-0.163 1.801,-0.49 0.367,-0.303 0.647,-0.692 0.838,-1.167 0.333,0.57 0.745,0.989 1.239,1.256 C -2.49,0.116 -1.908,0.25 -1.267,0.25 -0.839,0.25 -0.416,0.167 0,0"
             inkscape:connector-curvature="0"
             id="path180"
             style="fill:#4f4c4d;fill-opacity:1;fill-rule:nonzero;stroke:none" /></g><g
           transform="translate(143.4834,17.8457)"
           id="g182"><path
             d="M 0,0 C -0.163,-0.102 -0.327,-0.183 -0.493,-0.245 -0.658,-0.308 -0.886,-0.366 -1.175,-0.42 l -0.578,-0.106 c -0.543,-0.095 -0.932,-0.21 -1.168,-0.348 -0.4,-0.231 -0.6,-0.591 -0.6,-1.077 0,-0.434 0.122,-0.747 0.367,-0.941 0.244,-0.192 0.541,-0.289 0.89,-0.289 0.557,0 1.068,0.16 1.535,0.481 0.467,0.321 0.71,0.906 0.729,1.755 L 0,0 z m -1.554,1.185 c 0.473,0.058 0.811,0.132 1.015,0.222 0.365,0.155 0.548,0.397 0.548,0.723 0,0.397 -0.141,0.673 -0.421,0.824 -0.279,0.15 -0.692,0.227 -1.234,0.227 -0.607,0 -1.038,-0.149 -1.291,-0.446 -0.18,-0.219 -0.301,-0.516 -0.361,-0.892 l -2.452,0 c 0.054,0.85 0.293,1.549 0.717,2.095 0.675,0.856 1.832,1.283 3.473,1.283 1.068,0 2.017,-0.211 2.846,-0.633 C 2.116,4.167 2.53,3.371 2.53,2.201 l 0,-4.456 c 0,-0.308 0.006,-0.683 0.019,-1.122 0.017,-0.332 0.068,-0.559 0.151,-0.677 0.083,-0.118 0.208,-0.217 0.374,-0.294 l 0,-0.375 -2.762,0 c -0.078,0.197 -0.131,0.381 -0.161,0.553 -0.03,0.172 -0.053,0.368 -0.071,0.588 -0.352,-0.38 -0.759,-0.703 -1.219,-0.971 -0.55,-0.314 -1.172,-0.471 -1.865,-0.471 -0.885,0 -1.615,0.251 -2.192,0.753 -0.577,0.5 -0.866,1.212 -0.866,2.132 0,1.194 0.464,2.059 1.392,2.593 0.51,0.29 1.258,0.499 2.245,0.625 l 0.871,0.106 z"
             inkscape:connector-curvature="0"
             id="path184"
             style="fill:#4f4c4d;fill-opacity:1;fill-rule:nonzero;stroke:none" /></g><g
           transform="translate(153.0508,23.0625)"
           id="g186"><path
             d="m 0,0 c 0.032,-0.004 0.105,-0.008 0.219,-0.014 l 0,-2.601 c -0.161,0.017 -0.304,0.029 -0.429,0.036 -0.124,0.006 -0.226,0.009 -0.303,0.009 -1.022,0 -1.709,-0.333 -2.059,-0.999 -0.197,-0.373 -0.294,-0.951 -0.294,-1.728 l 0,-4.642 -2.558,0 0,9.711 2.424,0 0,-1.692 c 0.393,0.647 0.733,1.09 1.025,1.327 0.475,0.398 1.094,0.597 1.854,0.597 C -0.073,0.004 -0.033,0.003 0,0"
             inkscape:connector-curvature="0"
             id="path188"
             style="fill:#4f4c4d;fill-opacity:1;fill-rule:nonzero;stroke:none" /></g><g
           transform="translate(154.0186,26.2119)"
           id="g190"><path
             d="m 0,0 2.497,0 0,-7.086 3.203,3.664 3.159,0 -3.482,-3.617 3.617,-6.05 -3.091,0 -2.354,4.149 -1.052,-1.093 0,-3.056 -2.497,0 L 0,0 z"
             inkscape:connector-curvature="0"
             id="path192"
             style="fill:#4f4c4d;fill-opacity:1;fill-rule:nonzero;stroke:none" /></g><g
           transform="translate(175.2871,23.5381)"
           id="g194"><path
             d="m 0,0 c -0.348,0.291 -0.834,0.437 -1.461,0.437 l -2.474,0 0,-3.866 2.474,0 c 0.627,0 1.113,0.157 1.461,0.472 0.348,0.314 0.521,0.813 0.521,1.496 C 0.521,-0.777 0.348,-0.291 0,0 M 2.096,-4.73 C 1.326,-5.372 0.228,-5.692 -1.199,-5.692 l -2.736,0 0,-4.723 -2.727,0 0,13.133 5.641,0 c 1.3,0 2.336,-0.339 3.11,-1.015 0.774,-0.679 1.16,-1.726 1.16,-3.146 0,-1.55 -0.384,-2.645 -1.153,-3.287"
             inkscape:connector-curvature="0"
             id="path196"
             style="fill:#4f4c4d;fill-opacity:1;fill-rule:nonzero;stroke:none" /></g><g
           transform="translate(185.0449,23.0625)"
           id="g198"><path
             d="m 0,0 c 0.033,-0.004 0.106,-0.008 0.219,-0.014 l 0,-2.601 c -0.16,0.017 -0.303,0.029 -0.428,0.036 -0.124,0.006 -0.226,0.009 -0.303,0.009 -1.021,0 -1.708,-0.333 -2.058,-0.999 -0.197,-0.373 -0.295,-0.951 -0.295,-1.728 l 0,-4.642 -2.559,0 0,9.711 2.425,0 0,-1.692 c 0.393,0.647 0.734,1.09 1.025,1.327 0.476,0.398 1.093,0.597 1.855,0.597 C -0.072,0.004 -0.032,0.003 0,0"
             inkscape:connector-curvature="0"
             id="path200"
             style="fill:#4f4c4d;fill-opacity:1;fill-rule:nonzero;stroke:none" /></g><g
           transform="translate(192.1846,15.7148)"
           id="g202"><path
             d="m 0,0 c 0.398,0.527 0.598,1.278 0.598,2.25 0,0.974 -0.2,1.722 -0.598,2.248 -0.397,0.524 -0.968,0.786 -1.711,0.786 -0.742,0 -1.314,-0.262 -1.716,-0.786 -0.401,-0.526 -0.601,-1.274 -0.601,-2.248 0,-0.972 0.2,-1.723 0.601,-2.25 0.402,-0.528 0.974,-0.792 1.716,-0.792 0.743,0 1.314,0.264 1.711,0.792 m 2.033,-1.403 c -0.82,-1.012 -2.065,-1.518 -3.735,-1.518 -1.67,0 -2.914,0.506 -3.735,1.518 -0.819,1.011 -1.229,2.229 -1.229,3.653 0,1.401 0.41,2.615 1.229,3.642 0.821,1.027 2.065,1.54 3.735,1.54 1.67,0 2.915,-0.513 3.735,-1.54 0.821,-1.027 1.231,-2.241 1.231,-3.642 0,-1.424 -0.41,-2.642 -1.231,-3.653"
             inkscape:connector-curvature="0"
             id="path204"
             style="fill:#4f4c4d;fill-opacity:1;fill-rule:nonzero;stroke:none" /></g><path
           d="m 199.13,23.993 -2.54,0 0,2.343 2.54,0 0,-2.343 z m -3.761,-12.731 c 0.142,-0.013 0.243,-0.02 0.303,-0.023 0.059,-0.003 0.112,-0.005 0.16,-0.005 0.249,0 0.439,0.062 0.565,0.183 0.128,0.122 0.193,0.359 0.193,0.709 l 0,10.664 2.54,0 0,-10.709 c 0,-0.98 -0.193,-1.704 -0.579,-2.174 -0.387,-0.469 -1.145,-0.704 -2.274,-0.704 -0.077,0 -0.191,0.004 -0.342,0.01 -0.152,0.005 -0.34,0.011 -0.566,0.016 l 0,2.033 z"
           inkscape:connector-curvature="0"
           id="path206"
           style="fill:#4f4c4d;fill-opacity:1;fill-rule:nonzero;stroke:none" /><g
           transform="translate(203.5303,20.4443)"
           id="g208"><path
             d="m 0,0 c -0.359,-0.369 -0.585,-0.871 -0.677,-1.502 l 4.377,0 C 3.653,-0.828 3.429,-0.316 3.022,0.032 2.618,0.381 2.115,0.555 1.516,0.555 0.864,0.555 0.358,0.371 0,0 M 3.802,2.193 C 4.479,1.891 5.039,1.412 5.48,0.758 5.878,0.181 6.137,-0.488 6.255,-1.25 6.322,-1.697 6.351,-2.34 6.338,-3.179 l -7.077,0 c 0.04,-0.973 0.378,-1.656 1.016,-2.049 0.388,-0.243 0.855,-0.364 1.401,-0.364 0.578,0 1.048,0.148 1.41,0.446 0.198,0.159 0.372,0.382 0.524,0.667 l 2.594,0 C 6.137,-5.055 5.823,-5.64 5.264,-6.233 4.394,-7.179 3.175,-7.65 1.607,-7.65 c -1.293,0 -2.433,0.398 -3.421,1.195 -0.989,0.796 -1.483,2.092 -1.483,3.887 0,1.683 0.445,2.972 1.338,3.871 0.893,0.896 2.051,1.346 3.474,1.346 0.846,0 1.607,-0.152 2.287,-0.456"
             inkscape:connector-curvature="0"
             id="path210"
             style="fill:#4f4c4d;fill-opacity:1;fill-rule:nonzero;stroke:none" /></g><g
           transform="translate(216.6826,19.3506)"
           id="g212"><path
             d="m 0,0 c -0.048,0.363 -0.17,0.69 -0.366,0.98 -0.286,0.393 -0.73,0.588 -1.331,0.588 -0.858,0 -1.445,-0.423 -1.76,-1.273 -0.167,-0.451 -0.25,-1.05 -0.25,-1.796 0,-0.711 0.083,-1.282 0.25,-1.715 0.304,-0.807 0.875,-1.212 1.715,-1.212 0.596,0 1.018,0.16 1.268,0.482 0.25,0.32 0.403,0.736 0.456,1.248 l 2.594,0 C 2.517,-3.471 2.237,-4.202 1.737,-4.891 0.94,-6.001 -0.24,-6.557 -1.805,-6.557 c -1.564,0 -2.715,0.463 -3.452,1.391 -0.738,0.926 -1.106,2.127 -1.106,3.604 0,1.666 0.407,2.962 1.221,3.888 0.816,0.927 1.94,1.39 3.373,1.39 1.219,0 2.217,-0.274 2.994,-0.82 C 2.001,2.35 2.46,1.385 2.603,0 L 0,0 z"
             inkscape:connector-curvature="0"
             id="path214"
             style="fill:#4f4c4d;fill-opacity:1;fill-rule:nonzero;stroke:none" /></g><g
           transform="translate(219.5576,20.9375)"
           id="g216"><path
             d="m 0,0 0,1.808 1.355,0 0,2.709 2.514,0 0,-2.709 1.577,0 0,-1.808 -1.577,0 0,-5.132 c 0,-0.398 0.05,-0.646 0.152,-0.744 0.1,-0.099 0.41,-0.147 0.926,-0.147 0.077,0 0.159,10e-4 0.245,0.003 0.086,0.003 0.171,0.008 0.254,0.014 l 0,-1.896 -1.203,-0.045 c -1.2,-0.041 -2.02,0.166 -2.46,0.624 -0.285,0.29 -0.428,0.738 -0.428,1.344 L 1.355,0 0,0 z"
             inkscape:connector-curvature="0"
             id="path218"
             style="fill:#4f4c4d;fill-opacity:1;fill-rule:nonzero;stroke:none" /></g></g></g></g></svg>